<svg xmlns="http://www.w3.org/2000/svg" viewBox="0 0 800 600" width="800" height="600" role="img" aria-label="Alpha team managing marketplaces">
  <defs><linearGradient id="ab" x1="0" y1="0" x2="1" y2="1"><stop offset="0" stop-color="#15153f"/><stop offset="1" stop-color="#111144"/></linearGradient></defs>
  <rect width="800" height="600" fill="url(#ab)"/>
  <g fill="none" stroke="rgba(255,255,255,0.06)" stroke-width="1"><line x1="0" y1="0" x2="0" y2="600"/><line x1="50" y1="0" x2="50" y2="600"/><line x1="100" y1="0" x2="100" y2="600"/><line x1="150" y1="0" x2="150" y2="600"/><line x1="200" y1="0" x2="200" y2="600"/><line x1="250" y1="0" x2="250" y2="600"/><line x1="300" y1="0" x2="300" y2="600"/><line x1="350" y1="0" x2="350" y2="600"/><line x1="400" y1="0" x2="400" y2="600"/><line x1="450" y1="0" x2="450" y2="600"/><line x1="500" y1="0" x2="500" y2="600"/><line x1="550" y1="0" x2="550" y2="600"/><line x1="600" y1="0" x2="600" y2="600"/><line x1="650" y1="0" x2="650" y2="600"/><line x1="700" y1="0" x2="700" y2="600"/><line x1="750" y1="0" x2="750" y2="600"/><line x1="800" y1="0" x2="800" y2="600"/><line x1="0" y1="0" x2="800" y2="0"/><line x1="0" y1="50" x2="800" y2="50"/><line x1="0" y1="100" x2="800" y2="100"/><line x1="0" y1="150" x2="800" y2="150"/><line x1="0" y1="200" x2="800" y2="200"/><line x1="0" y1="250" x2="800" y2="250"/><line x1="0" y1="300" x2="800" y2="300"/><line x1="0" y1="350" x2="800" y2="350"/><line x1="0" y1="400" x2="800" y2="400"/><line x1="0" y1="450" x2="800" y2="450"/><line x1="0" y1="500" x2="800" y2="500"/><line x1="0" y1="550" x2="800" y2="550"/><line x1="0" y1="600" x2="800" y2="600"/></g>
  <circle cx="120" cy="120" r="150" fill="#F98513" fill-opacity="0.22"/>
  <circle cx="700" cy="520" r="150" fill="#9BACD8" fill-opacity="0.18"/>
  <g transform="translate(150 120)">
    <rect width="500" height="290" rx="26" fill="#fff" fill-opacity="0.96"/>
    <rect x="34" y="34" width="160" height="18" rx="9" fill="#111144"/>
    <rect x="34" y="64" width="240" height="12" rx="6" fill="#9BACD8"/>
    <g transform="translate(34 116)">
      <rect x="0" y="40" width="46" height="120" rx="8" fill="#9BACD8"/>
      <rect x="64" y="12" width="46" height="148" rx="8" fill="#F98513"/>
      <rect x="128" y="68" width="46" height="92" rx="8" fill="#9BACD8"/>
      <rect x="192" y="34" width="46" height="126" rx="8" fill="#F98513"/>
      <rect x="256" y="86" width="46" height="74" rx="8" fill="#9BACD8"/>
      <rect x="320" y="20" width="46" height="140" rx="8" fill="#111144"/>
      <rect x="384" y="58" width="46" height="102" rx="8" fill="#F98513"/>
    </g>
  </g>
  <g font-family="'Segoe UI', system-ui, sans-serif" font-weight="700" font-size="26" fill="#fff" text-anchor="middle">
    <g transform="translate(90 430)"><circle r="40" fill="#F98513"/><text y="9">SM</text></g>
    <g transform="translate(700 150)"><circle r="36" fill="#9BACD8"/><text y="9" fill="#111144">DO</text></g>
    <g transform="translate(640 470)"><circle r="32" fill="#fff"/><text y="8" fill="#111144">ER</text></g>
  </g>
</svg>
