<svg xmlns="http://www.w3.org/2000/svg" viewBox="0 0 800 600" width="800" height="600" role="img" aria-label="Brightline Tech">
  <defs>
    <linearGradient id="bg-case-shopify" x1="0" y1="0" x2="1" y2="1">
      <stop offset="0" stop-color="#15153f"/><stop offset="1" stop-color="#111144"/>
    </linearGradient>
    <linearGradient id="scrim-case-shopify" x1="0" y1="0" x2="0" y2="1">
      <stop offset="0.4" stop-color="#000" stop-opacity="0"/><stop offset="1" stop-color="#000" stop-opacity="0.5"/>
    </linearGradient>
  </defs>
  <rect width="800" height="600" fill="url(#bg-case-shopify)"/>
  <g fill="none" stroke="rgba(255,255,255,0.06)" stroke-width="1"><line x1="0" y1="0" x2="0" y2="600"/><line x1="50" y1="0" x2="50" y2="600"/><line x1="100" y1="0" x2="100" y2="600"/><line x1="150" y1="0" x2="150" y2="600"/><line x1="200" y1="0" x2="200" y2="600"/><line x1="250" y1="0" x2="250" y2="600"/><line x1="300" y1="0" x2="300" y2="600"/><line x1="350" y1="0" x2="350" y2="600"/><line x1="400" y1="0" x2="400" y2="600"/><line x1="450" y1="0" x2="450" y2="600"/><line x1="500" y1="0" x2="500" y2="600"/><line x1="550" y1="0" x2="550" y2="600"/><line x1="600" y1="0" x2="600" y2="600"/><line x1="650" y1="0" x2="650" y2="600"/><line x1="700" y1="0" x2="700" y2="600"/><line x1="750" y1="0" x2="750" y2="600"/><line x1="800" y1="0" x2="800" y2="600"/><line x1="0" y1="0" x2="800" y2="0"/><line x1="0" y1="50" x2="800" y2="50"/><line x1="0" y1="100" x2="800" y2="100"/><line x1="0" y1="150" x2="800" y2="150"/><line x1="0" y1="200" x2="800" y2="200"/><line x1="0" y1="250" x2="800" y2="250"/><line x1="0" y1="300" x2="800" y2="300"/><line x1="0" y1="350" x2="800" y2="350"/><line x1="0" y1="400" x2="800" y2="400"/><line x1="0" y1="450" x2="800" y2="450"/><line x1="0" y1="500" x2="800" y2="500"/><line x1="0" y1="550" x2="800" y2="550"/><line x1="0" y1="600" x2="800" y2="600"/></g>
  <circle cx="660" cy="120" r="150" fill="#9BACD8" fill-opacity="0.22"/>
  <circle cx="120" cy="500" r="110" fill="#F98513" fill-opacity="0.16"/>

  <g transform="translate(150 150)">
    <rect width="500" height="300" rx="24" fill="#ffffff" fill-opacity="0.10" stroke="#ffffff" stroke-opacity="0.18"/>
    <rect x="30" y="30" width="150" height="16" rx="8" fill="#ffffff" fill-opacity="0.8"/>
    <rect x="30" y="56" width="230" height="10" rx="5" fill="#9BACD8" fill-opacity="0.6"/>
    <rect x="360" y="26" width="110" height="40" rx="20" fill="#F98513"/>
    <text x="415" y="52" fill="#fff" font-family="'Segoe UI',system-ui,sans-serif" font-size="20" font-weight="700" text-anchor="middle">+212%</text>
    <g transform="translate(30 120)">
      <rect x="0" y="106" width="42" height="44" rx="8" fill="#9BACD8" fill-opacity="1"/><rect x="64" y="84" width="42" height="66" rx="8" fill="#F98513" fill-opacity="0.7"/><rect x="128" y="98" width="42" height="52" rx="8" fill="#9BACD8" fill-opacity="1"/><rect x="192" y="70" width="42" height="80" rx="8" fill="#F98513" fill-opacity="0.7"/><rect x="256" y="90" width="42" height="60" rx="8" fill="#9BACD8" fill-opacity="1"/><rect x="320" y="58" width="42" height="92" rx="8" fill="#F98513" fill-opacity="0.7"/><rect x="384" y="76" width="42" height="74" rx="8" fill="#9BACD8" fill-opacity="1"/>
      <polyline points="21,92 85,70 149,84 213,56 277,76 341,44 405,62" fill="none" stroke="#fff" stroke-width="3" stroke-linecap="round" stroke-opacity="0.85"/>
    </g>
  </g>

  <rect width="800" height="600" fill="url(#scrim-case-shopify)"/>
  <g font-family="'Segoe UI', system-ui, sans-serif">
    <rect x="48" y="470" width="113" height="32" rx="16" fill="#ffffff" fill-opacity="0.16"/>
    <text x="66" y="491" fill="#fff" font-size="16" font-weight="600">Shopify</text>
    <text x="48" y="544" fill="#fff" font-size="40" font-weight="800">Brightline Tech</text>
  </g>
</svg>
